# xmcd
#
# Track frame offsets:
#	150
#	22559
#	44495
#	60486
#	81299
#	98824
#	113969
#	132384
#	153939
#	174876
#	194199
#	211867
#
# Disc length: 3132 seconds
# Revision: 5
# Processed by: cddbd v1.5.2PL0 Copyright (c) Steve Scherf et al.
# Submitted via: dBpowerAMP V12.0
#
DISCID=990c3a0c
DTITLE=Tim McGraw - Emotional Traffic
DYEAR=2012
DGENRE=Country
TTITLE0=Halo
TTITLE1=Right Back Atcha Babe
TTITLE2=One Part, Two Part
TTITLE3=I Will Not Fall Down
TTITLE4=The One
TTITLE5=Better Than I Used To Be
TTITLE6=Touchdown Jesus
TTITLE7=The One That Got Away
TTITLE8=Felt Good On My Lips
TTITLE9=Hey Now
TTITLE10=Only Human
TTITLE11=Die By My Own Hand
EXTD=
EXTT0=
EXTT1=
EXTT2=
EXTT3=
EXTT4=
EXTT5=
EXTT6=
EXTT7=
EXTT8=
EXTT9=
EXTT10=
EXTT11=
PLAYORDER=
